<svg xmlns="http://www.w3.org/2000/svg" data-name="Layer 1" viewBox="0 0 122.88 89.82"><title>hd-1080</title><path d="M10.32 0h102.24a10.35 10.35 0 0 1 10.32 10.32V79.5a10.33 10.33 0 0 1-10.32 10.32H10.32A10.33 10.33 0 0 1 0 79.5V10.32A10.35 10.35 0 0 1 10.32 0" style="fill:#ffcb00;fill-rule:evenodd"/><path d="M4.9 41.51H118V11a6.11 6.11 0 0 0-6.1-6.1H11A6.11 6.11 0 0 0 4.9 11z" style="fill-rule:evenodd;fill:#262626"/><path d="M27.07 49.13h10.4v11.76h11.39V49.13h10.45v33.69H48.86V69.18H37.47v13.64h-10.4zm37.73 0h15.47a18.5 18.5 0 0 1 7.39 1.24 12 12 0 0 1 4.66 3.56 14.8 14.8 0 0 1 2.68 5.4 24.8 24.8 0 0 1 .83 6.53 22.7 22.7 0 0 1-1.23 8.38 13.8 13.8 0 0 1-3.41 5 11.16 11.16 0 0 1-4.69 2.69 24.3 24.3 0 0 1-6.21.91H64.8zm10.4 7.62v18.4h2.55a10.9 10.9 0 0 0 4.66-.72 4.94 4.94 0 0 0 2.17-2.52 16 16 0 0 0 .78-5.86q0-5.34-1.75-7.32c-1.17-1.32-3.1-2-5.81-2Z" style="fill:#262626"/><path d="M33.71 10.52v25h-6.88V19.15a20 20 0 0 1-3.24 2 25 25 0 0 1-3.93 1.5v-5.51a16.8 16.8 0 0 0 5.41-2.71 11.1 11.1 0 0 0 3-3.91Zm4.87 12.58q0-7 2.52-9.78t7.68-2.8a11.6 11.6 0 0 1 4.06.61 7.8 7.8 0 0 1 2.6 1.59A8.3 8.3 0 0 1 57 14.78a10.8 10.8 0 0 1 1 2.52 24 24 0 0 1 .64 5.7q0 6.68-2.27 9.77c-1.5 2.06-4.09 3.1-7.78 3.1a11 11 0 0 1-5-1A8.1 8.1 0 0 1 40.46 32a11 11 0 0 1-1.38-3.7 25.3 25.3 0 0 1-.5-5.2m6.76 0c0 3.12.27 5.26.83 6.4a2.59 2.59 0 0 0 2.4 1.72 2.55 2.55 0 0 0 1.8-.73 4.6 4.6 0 0 0 1.12-2.3 24 24 0 0 0 .36-4.9q0-4.89-.83-6.57a2.65 2.65 0 0 0-2.48-1.68 2.53 2.53 0 0 0-2.45 1.71q-.75 1.71-.75 6.35M65 22.28a6.54 6.54 0 0 1-2.34-1.91 5.7 5.7 0 0 1-1-3.31 5.83 5.83 0 0 1 2.9-5 10.56 10.56 0 0 1 6-1.51q4.92 0 7.28 1.88a5.79 5.79 0 0 1 2.35 4.71 5.53 5.53 0 0 1-.94 3.1A7.7 7.7 0 0 1 77 22.28a6.8 6.8 0 0 1 3 2.53 6.4 6.4 0 0 1 1 3.48 7.2 7.2 0 0 1-.85 3.44A6.9 6.9 0 0 1 78 34.2a8.5 8.5 0 0 1-3 1.28 18 18 0 0 1-3.92.41 15.2 15.2 0 0 1-6-.92A6.7 6.7 0 0 1 62 32.26a7.7 7.7 0 0 1-1.07-4 5.91 5.91 0 0 1 4.09-6Zm3-4.82a2.76 2.76 0 0 0 .8 2.06 3 3 0 0 0 2.13.77 2.6 2.6 0 0 0 1.93-.77 2.7 2.7 0 0 0 .76-2 2.8 2.8 0 0 0-.79-2.07 2.7 2.7 0 0 0-2-.79 2.75 2.75 0 0 0-2 .78 2.72 2.72 0 0 0-.78 2ZM67.66 28a3.72 3.72 0 0 0 1 2.66 3.06 3.06 0 0 0 2.26 1 2.92 2.92 0 0 0 2.19-1.05 4.13 4.13 0 0 0 0-5.32 3.07 3.07 0 0 0-2.27-1 3 3 0 0 0-2.22 1 3.8 3.8 0 0 0-1 2.71Zm15.51-4.9q0-7 2.52-9.78c1.68-1.87 4.23-2.8 7.67-2.8a11.7 11.7 0 0 1 4.07.61 7.8 7.8 0 0 1 2.57 1.59 8.3 8.3 0 0 1 1.58 2.06 10.3 10.3 0 0 1 .93 2.52 24 24 0 0 1 .69 5.72q0 6.68-2.26 9.77c-1.51 2.06-4.1 3.1-7.78 3.1a11 11 0 0 1-5-1A8.1 8.1 0 0 1 85 32a11 11 0 0 1-1.38-3.7 25.3 25.3 0 0 1-.49-5.2Zm6.75 0c0 3.12.27 5.26.83 6.4a2.59 2.59 0 0 0 2.4 1.72A2.53 2.53 0 0 0 95 30.5a4.43 4.43 0 0 0 1.12-2.3 24 24 0 0 0 .36-4.9c0-3.26-.27-5.45-.83-6.57a2.65 2.65 0 0 0-2.48-1.68 2.54 2.54 0 0 0-2.45 1.71q-.75 1.71-.75 6.35Z" style="fill:#fd5"/></svg>